Coordinates
version=1
nRows=7
nColumns=40
inDegrees=yes

Units are S.I. units (second, meters, Newtons, ...)
If the header above contains a line with 'inDegrees', this indicates whether rotational values are in degrees (yes) or radians (no).

endheader
time	pelvis_tilt	pelvis_list	pelvis_rotation	pelvis_tx	pelvis_ty	pelvis_tz	hip_flexion_r	hip_adduction_r	hip_rotation_r	knee_angle_r	knee_angle_r_beta	ankle_angle_r	subtalar_angle_r	mtp_angle_r	hip_flexion_l	hip_adduction_l	hip_rotation_l	knee_angle_l	knee_angle_l_beta	ankle_angle_l	subtalar_angle_l	mtp_angle_l	lumbar_extension	lumbar_bending	lumbar_rotation	arm_flex_r	arm_add_r	arm_rot_r	elbow_flex_r	pro_sup_r	wrist_flex_r	wrist_dev_r	arm_flex_l	arm_add_l	arm_rot_l	elbow_flex_l	pro_sup_l	wrist_flex_l	wrist_dev_l
      2.05000000	      2.50822596	     -5.72394257	     89.82227623	      0.22568135	      0.99967510	     -0.21866379	     12.81344834	      7.16141042	     -2.51268912	     11.62545310	      0.20290243	      2.89239145	      0.00000000	      0.00000000	     22.51115821	     -5.42783258	     -2.52360926	     58.12887969	      1.01454034	     -0.85022672	      0.00000000	      0.00000000	     -2.41310463	      0.96240641	     -1.36742231	      0.00000000	      0.00000000	      0.00000000	      0.00000000	      0.00000000	      0.00000000	      0.00000000	      0.00000000	      0.00000000	      0.00000000	      0.00000000	      0.00000000	      0.00000000	      0.00000000
      2.06000000	      2.34182810	     -5.86413660	     89.80049180	      0.22612018	      1.00034770	     -0.22838499	     11.96432609	      7.02130638	     -2.61462464	     10.94068924	      0.19095105	      3.18480210	      0.00000000	      0.00000000	     23.77170978	     -5.27510437	     -2.65971227	     56.92451887	      0.99352028	     -0.04744461	      0.00000000	      0.00000000	     -2.21896339	      0.72700310	     -1.32571429	      0.00000000	      0.00000000	      0.00000000	      0.00000000	      0.00000000	      0.00000000	      0.00000000	      0.00000000	      0.00000000	      0.00000000	      0.00000000	      0.00000000	      0.00000000	      0.00000000
      2.07000000	      2.18088450	     -5.68233178	     89.76733260	      0.22641777	      1.00136519	     -0.23839688	     10.68187496	      6.90256586	     -2.48360662	     10.13895889	      0.17695822	      3.28709140	      0.00000000	      0.00000000	     24.51241410	     -5.10396829	     -2.80492344	     55.37570533	      0.96648838	      0.93334331	     -0.00000000	      0.00000000	     -2.39232127	      0.52942861	     -1.29613092	      0.00000000	     -0.00000000	     -0.00000000	      0.00000000	      0.00000000	      0.00000000	     -0.00000000	     -0.00000000	     -0.00000000	      0.00000000	      0.00000000	      0.00000000	     -0.00000000	     -0.00000000
      2.08000000	      2.05527470	     -5.85629001	     89.72964502	      0.22672529	      1.00164292	     -0.24810886	      9.87970337	      6.80870861	     -2.47209362	      9.47022100	      0.16528654	      3.54405753	      0.00000000	      0.00000000	     25.62505899	     -4.94363919	     -2.86278705	     53.70847286	      0.93738969	      1.57231826	      0.00000000	      0.00000000	     -2.16586332	      0.36904851	     -1.28018742	      0.00000000	      0.00000000	      0.00000000	      0.00000000	      0.00000000	      0.00000000	      0.00000000	      0.00000000	      0.00000000	      0.00000000	      0.00000000	      0.00000000	      0.00000000	      0.00000000
      2.09000000	      1.92786873	     -5.75336771	     89.66781009	      0.22701428	      1.00216741	     -0.25809076	      8.69967284	      6.71825398	     -2.40731474	      8.67835074	      0.15146579	      3.70968550	      0.00000000	      0.00000000	     26.27131078	     -4.77623716	     -2.92930604	     51.73566557	      0.90295770	      2.06752945	      0.00000000	      0.00000000	     -2.24059731	      0.20635960	     -1.21526365	      0.00000000	      0.00000000	      0.00000000	      0.00000000	      0.00000000	      0.00000000	      0.00000000	      0.00000000	      0.00000000	      0.00000000	      0.00000000	      0.00000000	      0.00000000	      0.00000000
      2.10000000	      1.84773632	     -5.88243731	     89.59788864	      0.22734189	      1.00213731	     -0.26791617	      7.83726485	      6.67892061	     -2.33914016	      7.99853768	      0.13960082	      3.95338186	      0.00000000	      0.00000000	     27.12068653	     -4.64255356	     -2.90674681	     49.62397407	      0.86610174	      2.37958731	      0.00000000	      0.00000000	     -2.04892708	      0.07947906	     -1.17774231	      0.00000000	      0.00000000	      0.00000000	      0.00000000	      0.00000000	      0.00000000	      0.00000000	      0.00000000	      0.00000000	      0.00000000	      0.00000000	      0.00000000	      0.00000000	      0.00000000
      2.11000000	      1.75981890	     -5.86089932	     89.48513323	      0.22751223	      1.00217863	     -0.27784243	      6.78772641	      6.61911046	     -2.21471953	      7.28089853	      0.12707565	      4.16463017	      0.00000000	      0.00000000	     27.66949495	     -4.48428462	     -2.88681928	     47.26126328	      0.82486465	      2.48883160	      0.00000000	      0.00000000	     -2.05549423	      0.01079306	     -1.08875081	      0.00000000	      0.00000000	      0.00000000	      0.00000000	      0.00000000	      0.00000000	      0.00000000	      0.00000000	      0.00000000	      0.00000000	      0.00000000	      0.00000000	      0.00000000	      0.00000000
